<svg version="1.2" xmlns="http://www.w3.org/2000/svg" viewBox="0 0 245 245" width="245" height="245">
	<title>c</title>
	<style>
		.s0 { fill: #004482 } 
		.s1 { fill: #00599c } 
		.s2 { fill: #659ad2 } 
		.s3 { fill: #ffffff } 
	</style>
	<path class="s0" d="m230.7 71.6q0-1.4-0.1-2.8-0.2-1.4-0.5-2.8-0.3-1.4-0.8-2.7-0.6-1.3-1.2-2.6-0.7-1.2-1.6-2.3-0.9-1.1-1.9-2-1-1-2.1-1.8-1.1-0.9-2.3-1.5-43.4-25.1-86.9-50.1c-7.8-4.5-15.3-4.3-23.1 0.2-11.5 6.8-69.2 39.9-86.4 49.9-7.1 4.1-10.5 10.3-10.5 18.5v100.8q0 1.4 0.1 2.8 0.2 1.3 0.5 2.7 0.3 1.3 0.8 2.6 0.5 1.3 1.1 2.6 0.7 1.2 1.6 2.3 0.9 1.2 1.9 2.2 1 1 2.1 1.8 1.2 0.9 2.4 1.5c17.2 10 74.9 43.1 86.5 49.9 7.7 4.6 15.3 4.7 23.1 0.2q43.4-25.1 86.8-50.1 1.3-0.7 2.4-1.5 1.2-0.9 2.2-1.9 1-1 1.9-2.1 0.8-1.1 1.5-2.3 0.7-1.3 1.2-2.6 0.5-1.3 0.8-2.6 0.3-1.4 0.5-2.7 0.1-1.4 0.1-2.8v-100.8z"/>
	<path class="s1" d="m230.7 172.4q0.1 1.4-0.1 2.8-0.1 1.3-0.5 2.7-0.3 1.3-0.8 2.6-0.5 1.3-1.1 2.6-0.2 0.3-0.4 0.5-0.1 0.3-0.3 0.6-0.2 0.3-0.4 0.6-0.2 0.2-0.4 0.5l-104.7-63.3 98.2-68.9q1.2 0.6 2.3 1.5 1.1 0.8 2.1 1.8 1 0.9 1.9 2 0.8 1.1 1.6 2.3 0.6 1.3 1.1 2.6 0.6 1.3 0.9 2.7 0.3 1.4 0.5 2.8 0.1 1.4 0.1 2.8c0 33.6 0 100.8 0 100.8z"/>
	<path class="s2" d="m228.1 60.7l-212.3 122.4q-0.6-1.3-1.1-2.6-0.5-1.3-0.8-2.6-0.4-1.4-0.5-2.7-0.1-1.4-0.1-2.8v-100.8c0-8.2 3.4-14.4 10.5-18.5 17.2-10 74.9-43.1 86.4-49.9 7.8-4.6 15.3-4.7 23.1-0.2q43.4 25.1 86.9 50.1 1.2 0.6 2.3 1.5 1.1 0.8 2.1 1.8 1 0.9 1.9 2 0.8 1.1 1.6 2.3z"/>
	<path class="s3" d="m126.2 162.7c-3.6 0-7.1-0.4-10.5-1.4-3.5-0.9-6.8-2.3-9.8-4.1-3.1-1.8-5.9-4-8.4-6.6-2.5-2.5-4.6-5.4-6.3-8.5q-0.5-1-1-1.9c-4.3-8.8-5.1-18.9-2.5-28.3 2.7-9.4 8.7-17.5 16.9-22.8 8.2-5.2 18.1-7.3 27.8-5.8 9.6 1.5 18.4 6.5 24.6 14.1 0.5 0.6 1 1.3 1.5 2q0.4 0.5 0.7 1l35.1-20.2q-1.3-2.1-2.7-4-0.7-1-1.5-2c-12.1-15.8-29.8-26.5-49.5-30-19.7-3.4-40 0.6-56.8 11.4-16.8 10.8-29 27.5-34.2 46.8-5.1 19.3-2.8 39.8 6.4 57.5q0.5 1 1 1.9c6.8 12 16.6 22 28.4 29.1 11.8 7.1 25.2 11 39 11.4 13.8 0.4 27.4-2.8 39.6-9.3 12.1-6.5 22.4-16 29.9-27.6l-34.3-20.7c-1.8 2.8-4 5.3-6.4 7.5-2.4 2.2-5.1 4.2-8 5.7-2.9 1.6-6 2.8-9.2 3.6-3.2 0.8-6.5 1.2-9.8 1.2z"/>
</svg>