<svg version="1.2" xmlns="http://www.w3.org/2000/svg" viewBox="0 0 497 497" width="497" height="497">
	<title>espressif</title>
	<style>
		.s0 { fill: #e7352c } 
	</style>
	<g>
		<path class="s0" d="m164.5 369.6c0 5.1-1.2 10.2-3.4 14.9-2.2 4.6-5.4 8.7-9.4 12-3.9 3.3-8.6 5.6-13.6 6.9-5 1.2-10.2 1.3-15.2 0.3-3.4-0.6-6.6-1.8-9.7-3.4-3-1.6-5.7-3.7-8.2-6.1-2.4-2.4-4.4-5.2-6-8.2-1.7-3-2.8-6.3-3.5-9.6-1.4-7.3-0.5-14.9 2.7-21.7 3.2-6.7 8.5-12.3 15-15.8 6.6-3.5 14.2-4.8 21.6-3.7 7.3 1 14.2 4.5 19.5 9.8q2.4 2.4 4.3 5.2 1.9 2.9 3.2 6.1 1.3 3.1 2 6.5 0.7 3.4 0.7 6.8zm303.7-36.3c-5.5-38.3-17.2-75.5-34.5-110.1-17.4-34.6-40.1-66.2-67.5-93.6-27.4-27.4-59-50.2-93.6-67.5-34.7-17.4-71.9-29-110.2-34.5q-6.9 3.7-13.5 7.8-6.7 4.1-13 8.7-6.4 4.6-12.4 9.6-6 5-11.7 10.3v33.7c37.6 0 74.8 7.4 109.5 21.8 34.7 14.4 66.2 35.5 92.8 62 26.6 26.6 47.7 58.1 62.1 92.8 14.4 34.6 21.8 71.8 21.9 109.4h33.6q5.4-5.7 10.3-11.7 5-6 9.6-12.3 4.5-6.3 8.7-12.9 4.2-6.6 7.9-13.5z"/>
		<path class="s0" d="m495.4 227.8c0-22.4-3.3-44.6-9.8-65.9-6.5-21.4-16.1-41.7-28.6-60.2-12.4-18.6-27.5-35.1-44.8-49.3-17.3-14.1-36.6-25.6-57.3-34q-10.3-4.2-21-7.4-10.7-3.2-21.6-5.4-11-2.1-22.1-3.1-11.1-1.1-22.2-1c-8 0-15.8 0-23.6 1.2l-5.1 15c27.4 9.7 53.7 22.3 78.3 37.8 24.7 15.5 47.5 33.6 68 54.2 20.6 20.6 38.8 43.4 54.3 68 15.5 24.6 28.2 50.8 37.9 78.3l15-5.4c0-7.5 1.4-15.1 1.4-23.5m-223.6 268.3c-35.3 0-70.2-6.9-102.7-20.4-32.6-13.4-62.2-33.1-87.2-58-24.9-24.8-44.8-54.4-58.4-86.9-13.6-32.5-20.6-67.4-20.8-102.6-0.1-17.6 1.6-35.2 5.1-52.5 3.4-17.3 8.5-34.2 15.2-50.5 6.8-16.3 15.1-31.9 24.9-46.5 9.8-14.7 21.1-28.3 33.6-40.8l15.3 14.4c-23.3 23.1-41.8 50.6-54.4 80.8-12.6 30.3-19.1 62.8-19.1 95.6 0 32.8 6.5 65.3 19.1 95.5 12.6 30.3 31.1 57.8 54.4 80.9 23.1 23.3 50.5 41.8 80.8 54.4 30.3 12.6 62.8 19.1 95.6 19.1 32.8 0 65.3-6.5 95.5-19.1 30.3-12.6 57.8-31.1 80.9-54.4l14.3 14.3c-12.6 12.5-26.4 23.6-41.3 33.3-14.8 9.7-30.6 17.9-47 24.4-16.5 6.6-33.6 11.5-51 14.7-17.4 3.2-35.1 4.6-52.8 4.3z"/>
		<path class="s0" d="m267.5 399.2c1.2-13.2 0.8-26.4-1.4-39.5-2.1-13.1-5.9-25.8-11.2-37.9-5.4-12.1-12.3-23.5-20.5-33.9-8.2-10.4-17.7-19.7-28.2-27.7q-8.5-6.7-17.9-12.1-9.3-5.4-19.3-9.5-10-4-20.4-6.6-10.5-2.6-21.2-3.8c-1.8-0.2-3.5-0.8-5.1-1.6-1.6-0.9-3-2.1-4.1-3.4-1.2-1.4-2.1-3-2.6-4.7-0.6-1.7-0.8-3.5-0.7-5.3q0.2-2.1 0.9-4.1 0.8-1.9 2.1-3.5 1.3-1.7 3.1-2.8 1.7-1.2 3.7-1.8 0.7-0.2 1.3-0.3 0.7-0.2 1.4-0.2 0.7-0.1 1.4-0.1 0.7 0 1.4 0.1c24 2.5 47.3 9.7 68.6 21.2 21.3 11.4 40.1 27 55.3 45.7 15.3 18.7 26.8 40.3 33.8 63.4 6.9 23.1 9.3 47.4 6.9 71.5q-0.3 4-0.9 8-0.6 4-1.3 8-0.8 4-1.8 7.9-0.9 4-2.1 7.8l40.9 11.6q4.6-1.3 9.1-2.8 4.4-1.5 8.9-3.2 4.4-1.7 8.7-3.6 4.4-1.8 8.6-3.8 1.2-6 2-12 0.9-6 1.4-12 0.6-6.1 0.8-12.1 0.3-6.1 0.3-12.2c-0.1-30.6-5.5-61-16.2-89.7-10.7-28.7-26.3-55.3-46.3-78.6-20-23.2-43.9-42.7-70.7-57.6-26.8-14.8-56-24.8-86.3-29.5q-5.1-0.9-10.2-1.4-5.2-0.5-10.3-0.5-5.2 0-10.4 0.5-5.1 0.5-10.2 1.4-6.4 1.7-12.5 4.3-6.1 2.7-11.8 6.2-5.6 3.5-10.7 7.7-5.1 4.3-9.5 9.3c-9.4 11-16.1 24.1-19.2 38.3-3.2 14.1-2.8 28.8 1.1 42.8 3.8 14 11.1 26.8 21.1 37.2 10.1 10.5 22.5 18.3 36.3 22.8q2.7 0.7 5.5 1.3 2.7 0.5 5.5 1.1 2.8 0.5 5.5 0.9 2.8 0.4 5.6 0.7c9.5 1.7 18.7 5 27.1 9.8 8.4 4.8 15.9 11 22.1 18.4 6.3 7.4 11.2 15.8 14.5 24.9 3.3 9.1 5 18.7 5 28.3q0 5.9-0.9 11.7-0.8 5.9-2.5 11.5-1.6 5.6-4.1 11-2.5 5.3-5.7 10.3l28.2 18.1q5.2 1.4 10.5 2.6 5.2 1.1 10.5 2 5.3 0.9 10.7 1.5 5.3 0.6 10.7 0.9 3.1-6.3 5.7-12.9 2.6-6.6 4.5-13.4 2-6.8 3.3-13.8 1.3-6.9 2-14"/>
	</g>
</svg>