<svg version="1.2" xmlns="http://www.w3.org/2000/svg" viewBox="0 0 50 50" width="50" height="50">
	<title>matlab</title>
	<defs>
		<linearGradient id="g1" x2="1" gradientUnits="userSpaceOnUse" gradientTransform="matrix(-3.183,-10.277,12.511,-3.875,26.428,23.878)">
			<stop offset="0" stop-color="#551122"/>
			<stop offset=".23" stop-color="#552233"/>
			<stop offset=".36" stop-color="#553344"/>
			<stop offset=".51" stop-color="#664455"/>
			<stop offset=".66" stop-color="#556688"/>
			<stop offset=".84" stop-color="#2299dd"/>
		</linearGradient>
		<linearGradient id="g2" x2="1" gradientUnits="userSpaceOnUse" gradientTransform="matrix(-32.006,-7.859,9.825,-40.01,49.378,30.304)">
			<stop offset=".081" stop-color="#cc3333"/>
			<stop offset=".189" stop-color="#de5239"/>
			<stop offset=".313" stop-color="#f06e3e"/>
			<stop offset=".421" stop-color="#fa8042"/>
			<stop offset=".5" stop-color="#fe8643"/>
			<stop offset=".58" stop-color="#fa7f42"/>
			<stop offset=".696" stop-color="#ef6c3e"/>
			<stop offset=".833" stop-color="#dc4c37"/>
			<stop offset=".916" stop-color="#cf3633"/>
		</linearGradient>
	</defs>
	<style>
		.s0 { fill: #4499dd } 
		.s1 { fill: url(#g1) } 
		.s2 { fill: url(#g2) } 
	</style>
	<path class="s0" d="m0.1 27.8l14.2-5.8q0.5-0.7 1.1-1.4 0.6-0.7 1.2-1.3 0.6-0.7 1.2-1.3 0.6-0.6 1.3-1.2c1.2-0.6 3.4-0.3 7.4-5.3 3.9-4.9 5.2-9.1 7-9.1 2.9 0 5 6.3 8.3 15.8q0.9 2.7 1.8 5.4 0.9 2.6 1.9 5.3 1.1 2.7 2.1 5.3 1.1 2.6 2.3 5.2c-3.4-3.1-6.3-6.5-9.6-6.4-3 0.1-6.4 3.7-10.1 8.3-3 3.8-6.9 6.3-8.4 6.3 0 0-4-11.2-7.3-13q-0.5-0.2-1-0.3-0.6-0.1-1.1 0-0.6 0-1.1 0.2-0.6 0.2-1 0.5l-10.2-7.3z"/>
	<path class="s1" d="m31.8 3.7c-1.2 1.6-2.7 4.5-5.3 7.8-4 5-6.2 4.7-7.4 5.3q-0.7 0.6-1.3 1.2-0.6 0.6-1.2 1.3-0.6 0.6-1.2 1.3-0.6 0.7-1.1 1.4l5.8 4.3c5-6.8 7.7-14.1 9.8-18.9q0.2-0.5 0.4-1 0.2-0.4 0.4-0.9 0.3-0.5 0.5-0.9 0.3-0.5 0.6-0.9z"/>
	<path class="s2" d="m33.5 2.4c-3.8 0-6.5 20.4-20.8 31.8 4-0.6 7.5 9.3 9.1 13.4 7.1-1.2 12.8-14.8 18.5-14.6 3.3 0.1 6.2 3.3 9.6 6.4-7.7-16.2-11.3-37-16.4-37z"/>
</svg>