<svg version="1.2" xmlns="http://www.w3.org/2000/svg" viewBox="0 0 64 64" width="64" height="64">
	<title>python</title>
	<defs>
		<linearGradient id="g1" x2="1" gradientUnits="userSpaceOnUse" gradientTransform="matrix(31.581,31.687,-50.547,50.378,6.203,5.702)">
			<stop offset="0" stop-color="#387eb8"/>
			<stop offset="1" stop-color="#366994"/>
		</linearGradient>
		<linearGradient id="g2" x2="1" gradientUnits="userSpaceOnUse" gradientTransform="matrix(33.918,32.495,-51.775,54.042,25.631,25.86)">
			<stop offset="0" stop-color="#ffe052"/>
			<stop offset="1" stop-color="#ffc331"/>
		</linearGradient>
	</defs>
	<style>
		.s0 { fill: url(#g1) } 
		.s1 { fill: url(#g2) } 
	</style>
	<path class="s0" d="m31.8 0.1c-16.2 0-15.2 7.1-15.2 7.1v7.3h15.5v2.2h-21.7c0 0-10.3-1.2-10.3 15.1 0 16.4 9 15.8 9 15.8h5.4v-7.6c0 0-0.3-9 8.9-9h15.4c0 0 8.6 0.1 8.6-8.4v-14c0 0 1.3-8.5-15.6-8.5zm-8.6 4.9c1.6 0 2.8 1.3 2.8 2.8 0 1.6-1.2 2.8-2.8 2.8q-0.5 0-1-0.2-0.5-0.2-0.9-0.6-0.4-0.4-0.6-0.9-0.2-0.5-0.2-1.1c0-1.5 1.2-2.8 2.7-2.8z"/>
	<path class="s1" d="m32.2 63.7c16.2 0 15.2-7 15.2-7v-7.3h-15.5v-2.2h21.7c0 0 10.3 1.2 10.3-15.2 0-16.4-9-15.8-9-15.8h-5.4v7.6c0 0 0.3 9.1-8.9 9.1h-15.4c0 0-8.6-0.2-8.6 8.3v14c0 0-1.3 8.5 15.6 8.5zm8.6-4.9q-0.6 0-1.1-0.2-0.5-0.2-0.9-0.6-0.4-0.4-0.6-0.9-0.2-0.5-0.2-1.1c0-1.5 1.2-2.8 2.8-2.8 1.5 0 2.7 1.3 2.7 2.8 0 1.5-1.2 2.8-2.7 2.8z"/>
</svg>