<svg version="1.2" xmlns="http://www.w3.org/2000/svg" viewBox="0 0 2430 2430" width="2430" height="2430">
	<title>react-native</title>
	<style>
		.s0 { fill: #61dafb } 
	</style>
	<g>
		<path class="s0" d="m2302.9 977.1c0-145.3-182-283-461.1-368.4 64.4-284.5 35.8-510.8-90.3-583.2-29.1-17-63-25.1-100.2-25.1v99.8c20.6 0 37.2 4 51 11.6 60.8 34.9 87.2 167.7 66.6 338.5-4.9 42.1-12.9 86.3-22.8 131.5-87.6-21.4-183.3-38-283.9-48.7-60.4-82.8-123-157.9-186.1-223.6 145.8-135.5 282.7-209.8 375.7-209.8v-99.7c-123 0-284 87.7-446.8 239.7-162.8-151.2-323.8-237.9-446.7-237.9v99.7c92.5 0 229.8 73.8 375.6 208.4-62.6 65.8-125.2 140.4-184.7 223.2-101.1 10.7-196.8 27.3-284.4 49.2-10.3-44.8-17.9-88.1-23.3-129.7-21-170.9 5-303.7 65.3-339 13.4-8.1 30.9-11.6 51.5-11.6v-99.8c-37.6 0-71.6 8.1-101.1 25.1-125.7 72.4-153.8 298.3-89 581.8-278.2 85.9-459.3 223.2-459.3 368 0 145.4 182 283.1 461.1 368.5-64.4 284.5-35.8 510.8 90.3 583.2 29.1 17 63.1 25 100.6 25 123 0 284-87.6 446.8-239.7 162.8 151.2 323.8 238 446.8 238 37.5 0 71.5-8.1 101-25.1 125.7-72.4 153.9-298.3 89-581.8 277.3-85.4 458.4-223.2 458.4-368.1zm-582.2-298.2c-16.6 57.7-37.2 117.1-60.4 176.6-18.4-35.8-37.6-71.5-58.6-107.3-20.6-35.8-42.5-70.7-64.4-104.7 63.5 9.4 124.8 21.1 183.4 35.4zm-204.9 476.2c-34.9 60.4-70.6 117.7-107.7 170.9-66.7 5.8-134.2 8.9-202.2 8.9-67.5 0-135-3.1-201.2-8.5-37.1-53.2-73.4-110-108.3-169.9-33.9-58.6-64.8-118.1-93-178 27.8-59.9 59.1-119.9 92.6-178.4 34.9-60.4 70.7-117.7 107.8-170.9 66.6-5.8 134.1-8.9 202.1-8.9 67.5 0 135.1 3.1 201.3 8.5 37.1 53.2 73.3 110 108.2 169.9 34 58.6 64.8 118.1 93 178-28.2 59.9-59 119.9-92.6 178.4zm144.5-58.1q8.8 21.9 17 43.9 8.3 22.1 16 44.3 7.7 22.3 14.9 44.7 7.2 22.5 13.8 45.1c-58.6 14.3-120.3 26.4-184.3 35.8 22-34.5 43.9-69.8 64.4-106 20.6-35.8 39.8-72 58.2-107.8zm-453.5 477.2c-41.6-43-83.2-90.8-124.3-143.1 40.2 1.8 81.4 3.1 123 3.1 42 0 83.6-0.9 124.3-3.1q-14.4 18.7-29.3 37-14.9 18.3-30.3 36.2-15.4 17.9-31.2 35.4-15.9 17.4-32.2 34.5zm-332.7-263.4c-63.5-9.4-124.8-21.1-183.4-35.4 16.6-57.7 37.2-117.1 60.4-176.6 18.3 35.8 37.6 71.5 58.6 107.3q31.5 53.7 64.4 104.7zm330.5-930.7c41.6 43 83.2 90.8 124.3 143.1-40.3-1.8-81.4-3.1-123-3.1-42 0-83.6 0.9-124.3 3.1q14.4-18.7 29.3-37 14.9-18.3 30.2-36.2 15.4-17.9 31.3-35.4 15.8-17.4 32.2-34.5zm-331 263.4c-21.9 34.5-43.8 69.8-64.4 106-20.5 35.8-39.8 71.6-58.1 107.3q-8.8-21.8-17.1-43.9-8.2-22-15.9-44.3-7.8-22.2-14.9-44.7-7.2-22.4-13.8-45c58.6-13.9 120.3-26 184.2-35.4zm-404.7 559.9c-158.3-67.5-260.7-156-260.7-226.3 0-70.2 102.4-159.2 260.7-226.2 38.5-16.6 80.5-31.3 123.9-45.2 25.5 87.6 59 178.9 100.6 272.3-41.1 93.1-74.2 183.8-99.3 271.1-44.2-13.9-86.3-29.1-125.2-45.7zm240.6 639.1c-60.8-34.9-87.2-167.7-66.6-338.5 4.9-42.1 12.9-86.4 22.8-131.5 87.6 21.4 183.3 38 284 48.7 60.3 82.8 122.9 157.9 186 223.6-145.8 135.5-282.6 209.8-375.7 209.8-20.1-0.5-37.1-4.5-50.5-12.1zm1060.8-340.8c21 170.9-4.9 303.7-65.3 339-13.4 8.1-30.9 11.6-51.4 11.6-92.6 0-229.9-73.8-375.7-208.4 62.6-65.7 125.2-140.4 184.7-223.1 101.1-10.8 196.8-27.3 284.4-49.2 10.3 45.2 18.4 88.5 23.3 130.1zm172.2-298.3c-38.5 16.6-80.5 31.3-123.9 45.2-25.5-87.6-59-178.9-100.6-272.3 41.1-93.1 74.2-183.8 99.2-271.1 44.3 13.9 86.4 29.1 125.7 45.7 158.3 67.5 260.7 156 260.7 226.2-0.4 70.3-102.8 159.3-261.1 226.3z"/>
		<path class="s0" d="m1205.5 1181.5c112.8 0 204.3-91.5 204.3-204.4 0-112.8-91.5-204.3-204.3-204.3-112.9 0-204.4 91.5-204.4 204.3 0 112.9 91.5 204.4 204.4 204.4zm-997 1124.2h-67.4v116.2h-38.1v-287.2h95.1q48.5 0 74.5 22.1 26.3 22.1 26.3 64.3 0 26.8-14.6 46.8-14.4 19.9-40.3 29.7l67.5 122v2.3h-40.6zm-67.5-30.9h58.2q28.2 0 44.8-14.6 16.7-14.6 16.7-39.1 0-26.6-15.9-40.8-15.8-14.2-45.8-14.4h-58zm293.9 151.1q-43.4 0-70.6-28.4-27.2-28.6-27.2-76.4v-6.7q0-31.7 12-56.6 12.3-25.1 34-39.1 21.8-14.2 47.3-14.2 41.6 0 64.7 27.5 23.1 27.4 23.1 78.5v15.2h-144.6q0.8 31.5 18.3 51.1 17.8 19.3 45 19.3 19.3 0 32.7-7.9 13.5-7.9 23.5-20.9l22.3 17.3q-26.8 41.3-80.5 41.3zm-4.5-191.4q-22.1 0-37.1 16.2-15 16-18.5 45h106.9v-2.8q-1.6-27.8-15-43-13.4-15.4-36.3-15.4zm262 187.4q-3.2-6.3-5.2-22.5-25.4 26.5-60.7 26.5-31.6 0-51.9-17.8-20.1-17.9-20.1-45.4 0-33.3 25.2-51.6 25.5-18.6 71.4-18.6h35.5v-16.7q0-19.2-11.4-30.4-11.4-11.5-33.7-11.5-19.6 0-32.8 9.9-13.2 9.9-13.2 23.9h-36.7q0-16 11.3-30.8 11.4-15 30.7-23.7 19.6-8.7 42.8-8.7 36.9 0 57.8 18.6 20.9 18.3 21.7 50.7v98.2q0 29.4 7.5 46.8v3.1zm-60.5-27.8q17.1 0 32.5-8.9 15.4-8.8 22.3-23v-43.8h-28.6q-67.1 0-67.1 39.2 0 17.2 11.5 26.8 11.4 9.7 29.4 9.7zm234.1 2q19.6 0 34.2-11.9 14.6-11.8 16.1-29.5h34.6q-1 18.3-12.7 34.9-11.6 16.6-31.1 26.4-19.4 9.9-41.1 9.9-43.6 0-69.4-29-25.6-29.2-25.7-79.7v-6.1q0-31.2 11.5-55.5 11.4-24.2 32.7-37.6 21.5-13.5 50.7-13.5 35.9 0 59.6 21.5 23.9 21.5 25.5 55.9h-34.6q-1.5-20.7-15.8-34-14-13.4-34.7-13.4-27.8 0-43.2 20.1-15.2 20-15.2 57.8v6.9q0 36.9 15.2 56.9 15.2 19.9 43.4 19.9zm175.4-239.3v51.7h39.8v28.2h-39.8v132.4q0 12.8 5.3 19.3 5.4 6.3 18.2 6.3 6.3 0 17.3-2.4v29.6q-14.4 4-28 4-24.4 0-36.9-14.8-12.4-14.8-12.4-42v-132.4h-38.9v-28.2h38.9v-51.7zm409.3 265.1h-38l-144.6-221.3v221.3h-38.1v-287.2h38.1l145 222.3v-222.3h37.6zm193.4 0q-3.2-6.3-5.2-22.5-25.4 26.5-60.7 26.5-31.6 0-51.9-17.8-20.1-18-20.1-45.4 0-33.3 25.2-51.7 25.5-18.5 71.4-18.5h35.5v-16.8q0-19.1-11.4-30.3-11.4-11.5-33.7-11.5-19.6 0-32.8 9.9-13.2 9.8-13.2 23.8h-36.7q0-15.9 11.2-30.7 11.5-15 30.8-23.7 19.6-8.7 42.8-8.7 36.9 0 57.8 18.6 20.9 18.3 21.7 50.7v98.2q0 29.4 7.5 46.7v3.2zm-60.5-27.8q17.1 0 32.5-8.9 15.4-8.9 22.3-23.1v-43.8h-28.6q-67.1 0-67.1 39.3 0 17.2 11.5 26.8 11.4 9.7 29.4 9.7zm198-237.3v51.7h39.9v28.2h-39.9v132.3q0 12.9 5.3 19.4 5.4 6.3 18.2 6.3 6.3 0 17.4-2.4v29.6q-14.4 4-28.1 4-24.4-0.1-36.9-14.8-12.4-14.8-12.4-42.1v-132.3h-38.8v-28.2h38.8v-51.7zm122.3 265.1h-36.5v-213.4h36.5zm-39.4-270.1q0-8.9 5.3-15 5.5-6.1 16.2-6.1 10.6 0 16.2 6.1 5.5 6.1 5.5 15 0 8.9-5.5 14.8-5.6 5.9-16.2 5.9-10.7 0-16.2-5.9-5.3-5.9-5.3-14.8zm168.4 220.6l52.9-164h37.3l-76.5 213.5h-27.9l-77.3-213.5h37.3zm211.1 53.5q-43.4 0-70.7-28.4-27.2-28.6-27.2-76.4v-6.7q0-31.7 12.1-56.6 12.2-25.1 33.9-39 21.9-14.3 47.3-14.3 41.7 0 64.7 27.5 23.1 27.4 23.1 78.5v15.2h-144.6q0.8 31.5 18.4 51.1 17.7 19.3 44.9 19.3 19.4 0 32.8-7.9 13.4-7.9 23.5-20.9l22.3 17.4q-26.9 41.2-80.5 41.2zm-4.6-191.4q-22.1 0-37.1 16.2-15 16-18.5 45h106.9v-2.8q-1.6-27.8-15-43-13.4-15.4-36.3-15.4z"/>
	</g>
</svg>