<svg version="1.2" xmlns="http://www.w3.org/2000/svg" viewBox="0 0 119 119" width="119" height="119">
	<title>aStudio</title>
	<style>
		.s0 { opacity: .2;fill: #000000 } 
		.s1 { fill: #ffffff } 
		.s2 { fill: #3ddc84 } 
		.s3 { fill: #4285f4 } 
		.s4 { fill: #073042 } 
	</style>
	<path class="s0" d="m44.9 118.5c-2-0.5-3.7-1.6-6-4-3.9-3.9-7-5.6-12.5-6.5-5.6-1-8.1-3.1-9.7-8.1-1.8-6.2-3.8-9.2-8.1-12.4-4.8-3.6-6.1-6.7-4.9-12.5 1.1-5.3 0.7-9.1-1.6-13.9-2.6-5.8-2.3-8.9 1.5-13.7 3.5-4.4 4.6-7.2 5.1-13.4 0.5-6.3 2.2-8.8 7.4-10.9 4.2-1.7 7.9-4.8 9.9-8.2 2.4-4 2.7-4.5 4.2-5.5 2.3-1.8 4.2-2.3 7.8-2 6.3 0.4 9.6-0.4 13.8-3.1 5.5-3.6 8.9-3.6 14.4 0 4.2 2.7 7.5 3.5 13.8 3.1 5.9-0.4 8.4 1.1 12 7.5 1.8 3.2 5.5 6.3 9.5 8 5.7 2.4 7.3 4.7 7.7 10.5 0.5 6.2 1.8 9.7 5.2 14 3.8 4.8 4.1 7.9 1.5 13.7-2.3 4.8-2.7 8.6-1.6 13.9 1.2 5.8-0.1 8.9-4.9 12.5-4.3 3.2-6.3 6.2-8.1 12.4-1.6 5-4.1 7.1-9.7 8.1-5.5 0.9-8.6 2.6-12.5 6.6-4.3 4.4-7.3 5.1-13.3 3.1-4.9-1.6-8.7-1.6-13.5 0-3.4 1.1-5.3 1.3-7.4 0.8z"/>
	<path class="s1" d="m44.9 117.3c-2-0.4-3.7-1.5-6-3.9-3.9-4-7-5.6-12.5-6.6-5.6-1-8.1-3.1-9.7-8.1-1.8-6.2-3.8-9.2-8.1-12.3-4.8-3.6-6.1-6.8-4.9-12.5 1.1-5.4 0.7-9.1-1.6-14-2.6-5.8-2.3-8.9 1.5-13.7 3.5-4.3 4.6-7.2 5.1-13.4 0.5-6.2 2.2-8.8 7.4-10.9 4.2-1.7 7.9-4.7 9.9-8.2 2.4-4 2.7-4.4 4.2-5.5 2.3-1.8 4.2-2.2 7.8-2 6.3 0.4 9.6-0.4 13.8-3.1 5.5-3.6 8.9-3.6 14.4 0 4.2 2.7 7.5 3.5 13.8 3.1 5.9-0.4 8.4 1.2 12 7.6 1.8 3.1 5.5 6.2 9.5 7.9 5.7 2.5 7.3 4.7 7.7 10.5 0.5 6.3 1.8 9.8 5.2 14 3.8 4.8 4.1 7.9 1.5 13.7-2.3 4.9-2.7 8.6-1.6 14 1.2 5.7-0.1 8.9-4.9 12.5-4.3 3.1-6.3 6.1-8.1 12.3-1.6 5-4.1 7.1-9.7 8.1-5.5 1-8.6 2.6-12.5 6.6-4.3 4.4-7.3 5.1-13.3 3.1-4.9-1.6-8.7-1.6-13.5 0-3.4 1.1-5.3 1.3-7.4 0.8z"/>
	<path class="s2" d="m88 49.5c-4.8-3.4-11.1-4.3-17-2l16 32.7c5.3-3.2 8.5-8.7 8.8-14.6l6 0.4c0.4 0 0.7-0.2 0.7-0.6 0-0.3-0.3-0.6-0.6-0.6l-6.1-0.5c-0.1-2.6-0.7-5.2-1.9-7.7-1.3-2.5-2.9-4.6-4.9-6.3l3.4-5.1c0.2-0.3 0.1-0.6-0.2-0.8-0.3-0.2-0.6-0.2-0.8 0.1 0 0-3.4 5-3.4 5zm-0.7 19.6c-0.3-0.8 0-1.7 0.7-2 0.8-0.4 1.7-0.1 2.1 0.7 0.3 0.7 0 1.6-0.7 2-0.8 0.4-1.7 0-2.1-0.7zm-7.3-15.1c-0.4-0.7 0-1.6 0.7-2 0.8-0.4 1.7 0 2 0.7 0.4 0.8 0.1 1.7-0.7 2-0.7 0.4-1.6 0.1-2-0.7z"/>
	<path class="s3" d="m73.3 61.9c-4.5 2.1-9.3 3.2-14.3 3.2-11.4 0-21.7-5.7-27.7-14.9-0.4-0.7-1.4-0.9-2.1-0.4l-5.8 4.3c-0.7 0.5-0.8 1.4-0.3 2.1 7.8 11.7 21.2 19.1 35.9 19.1 6.5 0 12.8-1.4 18.7-4.3z"/>
	<path class="s3" d="m58.9 25.7h3.1v-6.9c0-1.8-1.4-3.2-3.1-3.2-1.7 0-3.1 1.4-3.1 3.2v6.9z"/>
	<path class="s3" d="m50.8 39.1l-21.5 44.3q-0.7 1.4-0.7 3l-0.2 5.8c0 1.5 1.7 2.4 2.9 1.4l4.5-3.7c0.8-0.6 1.4-1.5 1.9-2.4l21.2-43.6-8.1-4.7z"/>
	<path class="s3" d="m89.3 86.4c-0.1-1-0.3-2.1-0.8-3l-21.5-44.3-8.1 4.8 21.2 43.5q0.7 1.5 2 2.5l4.4 3.7c1.2 0.9 2.9 0.1 2.9-1.4l-0.1-5.8z"/>
	<path class="s4" d="m58.9 25.1c-5.2 0-9.4 4.2-9.4 9.4 0 5.2 4.2 9.4 9.4 9.4 5.2 0 9.4-4.2 9.4-9.4 0-5.2-4.2-9.4-9.4-9.4zm0 14.6c-2.8 0-5.2-2.4-5.2-5.2 0-2.9 2.4-5.2 5.2-5.2 2.9 0 5.2 2.3 5.2 5.2 0 2.8-2.3 5.2-5.2 5.2z"/>
</svg>