<svg version="1.2" xmlns="http://www.w3.org/2000/svg" viewBox="0 0 250 166" width="250" height="166">
	<title>LoRaWAN_Logo</title>
	<style>
		.s0 { fill: #000000 } 
		.s1 { fill: #009fe3 } 
	</style>
	<g id="g1093">
		<g id="g1074">
			<path id="polyline4" fill-rule="evenodd" class="s0" d="m0 110.9v-75.2h18.8v59.4h29.4v15.8h-48.2"/>
			<path id="path6" class="s0" d="m125 110.9v-75.2h37.6c18.2 0 27.3 8.2 27.3 24.7 0 4.9-1.4 9.1-4.2 12.7-2.8 3.6-6.6 6.2-11.3 7.6l17.2 30.2h-21l-14.8-27.1h-12v27.1zm18.8-61.3v20.3h17.2c6.7 0 10.1-3.4 10.1-10.1 0-6.8-3.3-10.1-10.1-10.1h-17.2z"/>
			<path id="path8" class="s0" d="m248.2 69.5v29.7q0 8 1.5 11.7h-15.2c-0.6-1.8-0.9-3.7-1-5.8h-0.2c-1.3 2.1-3.8 3.9-7.3 5.3-3.2 1.3-6.4 2-9.6 2-5.6 0-10-1.4-13.4-4.3-3.6-3-5.4-7.2-5.4-12.4 0-6.4 2.6-11.3 7.7-14.6 4.4-2.8 11.4-4.9 21.1-6.2l6-0.8v-4.7q0-6-7.8-6c-2.7 0-4.7 0.6-6 1.7-1.3 1.1-2.2 3.1-2.6 5.8h-16c0.3-11.8 8.1-17.6 23.2-17.6 8.2 0 14.3 1.1 18.3 3.4 4.5 2.5 6.7 6.8 6.7 12.8zm-15.8 18v-3.9l-11.1 3.2c-5.3 1.5-7.9 3.9-7.9 7.3 0 4.2 2.6 6.3 7.7 6.3 3.4 0 6.1-1.1 8.2-3.3 2-2.3 3.1-5.5 3.1-9.6z"/>
			<path id="path10" class="s0" d="m84 53.2c9 0 16.2 2.6 21.7 7.8 5.5 5.2 8.2 12.5 8.2 21.8 0 9.3-2.7 16.6-8.2 21.8-5.5 5.2-12.7 7.8-21.7 7.8-9 0-16.2-2.6-21.7-7.8-5.5-5.2-8.2-12.5-8.2-21.8 0-9.3 2.7-16.6 8.2-21.8 5.6-5.2 12.8-7.8 21.7-7.8zm0 12.6c-4.5 0-7.9 1.6-10.2 4.9-2.1 3-3.2 7-3.2 12.1 0 5.1 1.1 9.1 3.2 12.1 2.3 3.3 5.7 4.9 10.2 4.9 9 0 13.4-5.9 13.4-17.7 0-4.8-1.1-8.7-3.2-11.6-2.3-3.1-5.7-4.7-10.2-4.7z"/>
			<path id="path12" class="s1" d="m83.5 42c8.2 0 15.9 2.4 22.3 6.6l3.2-4.6c-7.4-4.8-16.1-7.6-25.5-7.6-9 0-17.4 2.6-24.6 7l3.2 4.6c6.3-3.9 13.6-6 21.4-6z"/>
			<path id="path14" class="s1" d="m48.9 29l4.3 6.1c8.8-5.6 19.2-8.8 30.3-8.8 11.6 0 22.3 3.5 31.3 9.4l4.3-6.1c-10.2-6.8-22.5-10.8-35.6-10.8-12.7 0-24.6 3.8-34.6 10.2z"/>
			<path id="path16" class="s1" d="m83.5 10.3c15 0 28.9 4.5 40.6 12.3l5.4-7.7c-13.1-8.9-29-14-46-14-16.5 0-32 4.9-44.9 13.3l5.4 7.7c11.4-7.3 24.9-11.6 39.5-11.6z"/>
			<path id="path18" class="s1" d="m84.6 123.8c-8.2 0-15.9-2.4-22.3-6.6l-3.2 4.6c7.4 4.8 16.1 7.6 25.6 7.6 9 0 17.4-2.6 24.6-7l-3.2-4.6c-6.4 3.9-13.7 6-21.5 6z"/>
			<path id="path20" class="s1" d="m119.2 136.8l-4.3-6.1c-8.8 5.6-19.2 8.8-30.3 8.8-11.6 0-22.3-3.5-31.3-9.4l-4.3 6.1c10.2 6.8 22.4 10.8 35.6 10.8 12.7 0 24.6-3.8 34.6-10.2z"/>
			<path id="path22" class="s1" d="m84.6 155.5c-15 0-28.9-4.5-40.6-12.3l-5.4 7.7c13.1 8.8 29 14 46 14 16.5 0 32-4.9 44.9-13.3l-5.4-7.7c-11.4 7.3-25 11.6-39.5 11.6z"/>
		</g>
		<g id="g36">
		</g>
	</g>
</svg>