<svg version="1.2" xmlns="http://www.w3.org/2000/svg" viewBox="0 0 620 500" width="620" height="500">
	<title>TheThingsNetwork-logo-vector</title>
	<style>
		.s0 { fill: #0d83d0 } 
		.s1 { fill: #363636 } 
	</style>
	<g>
		<path class="s0" d="m561 231.9c1.4 17.2-4 33.4-15 45.8-11.8 13.2-29.4 20.4-49.2 20.4h-428.6q-0.3 0-0.6 0h-0.2-0.4c-17.4-0.2-33.8-7-46-19.2-13-12.8-20-30-20.2-48.2 0-33.8 23-61.2 54.4-66.4 4.2-28.2 28.8-51.2 59.2-56 1.8-11.2 7.2-22 15.8-30.8 12.4-12.8 29.2-20 46.4-20 22.2 0 41.6 12 52 30 12.2-43.6 52.2-75.6 99.6-75.6 51.8 0 95 38.4 102.2 88.4 26-19.4 60.6-17.6 86.6 6.8l-2.8-2.4c20.8 16.8 28 39.6 27 58.8-0.6 11.4-4.4 21.4-11.2 29.6 6.6 2.2 12 6 17.2 11.2 7.2 7.2 12.2 16.2 13.6 26.2 0 0.4 0 0.8 0.2 1.4 0-0.6 0-0.4 0 0zm32.2-161.4c-15.2-20.6-37.8-35.8-62.6-42.2-5.6-1.2-11.4 2.6-12.6 8-2.2 5.6 1.4 12.8 7.4 14 25 6.6 46.6 24.2 58 47.4 9.4 19 11.8 41.4 6.6 62-1.4 5.8 2.8 12 8.8 12.8 5.4 1.6 11.4-1.6 13.2-6.8 8.2-32.2 1.2-68.4-18.8-95.2zm-71.4-3.2c-8.6-1.6-15.2 9-11.4 16.4 1.4 3.2 4.6 5.4 8 6.2 13 3.4 24.4 12.4 30.4 24.4 5.4 10.6 6.6 23 3.6 34.4-1.6 5.8 2.6 12.2 8.6 13.2 5.4 1.6 11.8-1.6 13.4-7.2 5.6-20.4 1.4-43.2-11-60.2-10-13.6-25-24-41.6-27.2z"/>
		<g>
			<g>
				<path class="s1" d="m18.8 487.5h-10.8v-47.4h10.8l19 29.6v-29.6h10.8v47.4h-10.8l-19-29.6z"/>
				<path class="s1" d="m131.8 449.3h-16.4v9.2h15.6v9.6h-15.6v9.6h16.4v9.6h-27.2v-47.4h27.2z"/>
				<path class="s1" d="m183.8 439.9h33.4v9.6h-11.2v37.8h-10.8v-37.8h-11.2z"/>
				<path class="s1" d="m299.2 460.9l-7.6 26.6h-12l-13.4-47.4h11.8l8 32.8h0.2l8.6-32.8h8l8.6 32.8h0.8l8-32.8h12l-13.4 47.4h-12z"/>
				<path class="s1" d="m403.8 439.1c13.2 0 24 10.8 24 24.4 0 14-10.2 24.6-24 24.6-14.2 0-24-10.8-24-24.6 0-13.8 10.8-24.4 24-24.4zm0 38.6c8.6 0 12.2-7 12.2-14.2 0-6.8-4-14.2-12.2-14.2-8.4 0-12.2 7-12.2 14.2 0 7.2 3.4 14.2 12.2 14.2z"/>
				<path class="s1" d="m498.4 439.9c8.8 0 15.6 4.8 15.6 14.2 0 7-4 12-9.8 13.6l16.4 19.8h-13.6l-14.4-18.8v18.8h-10.8v-47.4zm-5 21.2c4.2 0 8.8-0.2 8.8-6.4 0-6.2-4.8-6.4-8.8-6.4h-1.2v12.4h1.2z"/>
				<path class="s1" d="m599.8 487.5l-17.6-20.2v20.2h-10.8v-47.4h10.8v19.6l16.4-19.6h13.2l-19.4 22.4 22 25z"/>
			</g>
			<g>
				<path class="s1" d="m1 333.7h55.4v15.8h-18.8v63h-18v-63h-18.8z"/>
				<path class="s1" d="m84.8 412.7h-18v-79h18v31.6h25.4v-31.6h18v79h-18v-31.8h-25.4z"/>
				<path class="s1" d="m188.6 349.7h-27v15.6h26v15.8h-26v15.8h27.2v15.8h-45.4v-79h45.2v16z"/>
				<path class="s1" d="m223.2 333.7h55.4v15.8h-18.8v63h-18v-63h-18.8z"/>
				<path class="s1" d="m307 412.7h-18v-79h18v31.6h25.4v-31.6h18v79h-18v-31.8h-25.4z"/>
				<path class="s1" d="m383.8 412.7h-18v-79h18z"/>
				<path class="s1" d="m417 412.7h-18v-79h18l31.2 48.8h0.2v-48.8h18v79h-18l-31.2-48.8h-0.2z"/>
				<path class="s1" d="m553 385.5c-4.4 20-21 28.6-36.4 28.6-21.2 0-38.4-18.4-38.4-40.8 0-22.8 16.4-40.8 38.4-40.8 14 0 23.4 5.2 30.4 13.4l-11.8 13c-4.6-7.4-10.6-10-17.6-10-11 0-20 11-20 24.6 0 13.4 9 24.2 20 24.2 8.6 0 17.2-5.6 17.2-15.2h-18v-14h36.4v17z"/>
				<path class="s1" d="m616.6 339.9l-7.4 14.4c0 0-7.8-5.4-15.8-5.4-6.2 0-9.2 2.6-9.2 7 0 4.4 7.6 7.6 16.4 11.4 8.8 3.6 18.6 11.2 18.6 21.6 0 18.8-14.4 25.4-29.8 25.4-18.6 0-29.6-10.6-29.6-10.6l9-15.2c0 0 10.6 8.8 19.4 8.8 4 0 11.4-0.4 11.4-7.8 0-5.6-8.4-8.4-17.8-13-9.6-4.6-15-12-15-20.2 0-14.6 13-24.2 25.6-24.2 14 0.2 24.2 7.8 24.2 7.8z"/>
			</g>
		</g>
	</g>
</svg>